<svg width="33" height="34" viewBox="0 0 33 34" fill="none" xmlns="http://www.w3.org/2000/svg">
<g clip-path="url(#clip0_123_330)">
<path d="M23.0876 13.0029C22.9295 12.4116 22.4634 11.9455 21.8721 11.7874C20.7996 11.5 16.5 11.5 16.5 11.5C16.5 11.5 12.2004 11.5 11.1279 11.7874C10.5366 11.9455 10.0705 12.4116 9.91236 13.0029C9.625 14.0754 9.625 17 9.625 17C9.625 17 9.625 19.9246 9.91236 20.9971C10.0705 21.5884 10.5366 22.0545 11.1279 22.2126C12.2004 22.5 16.5 22.5 16.5 22.5C16.5 22.5 20.7996 22.5 21.8721 22.2126C22.4641 22.0545 22.9295 21.5884 23.0876 20.9971C23.375 19.9246 23.375 17 23.375 17C23.375 17 23.375 14.0754 23.0876 13.0029ZM15.125 19.3815V14.6185L19.25 17L15.125 19.3815Z" fill="#E62117" fill-opacity="0.8"/>
</g>
<rect x="0.5" y="1" width="32" height="32" rx="16" stroke="#E62117" stroke-opacity="0.8"/>
<defs>
<clipPath id="clip0_123_330">
<rect y="0.5" width="33" height="33" rx="16.5" fill="white"/>
</clipPath>
</defs>
</svg>
