<svg width="33" height="33" viewBox="0 0 33 33" fill="none" xmlns="http://www.w3.org/2000/svg">
<g clip-path="url(#clip0_123_341)">
<path d="M10.5662 21.78V12.7801H13.0623V21.78H10.5662ZM11.8201 11.6199C11.449 11.6199 11.1306 11.4968 10.865 11.2507C10.6033 11.0008 10.4724 10.7019 10.4724 10.3543C10.4724 10.0105 10.6033 9.71561 10.865 9.46949C11.1306 9.21949 11.449 9.09448 11.8201 9.09448C12.1912 9.09448 12.5076 9.21949 12.7693 9.46949C13.0349 9.71561 13.1677 10.0105 13.1677 10.3543C13.1677 10.7019 13.0349 11.0008 12.7693 11.2507C12.5076 11.4968 12.1912 11.6199 11.8201 11.6199ZM17.5578 16.5769V21.78H15.0618V12.7801H17.4407V14.3679H17.5461C17.7453 13.8445 18.0793 13.4305 18.5481 13.1258C19.0168 12.8171 19.5852 12.6629 20.2531 12.6629C20.8782 12.6629 21.4231 12.7996 21.8879 13.073C22.3528 13.3465 22.7141 13.7371 22.9719 14.2449C23.2297 14.7488 23.3586 15.3504 23.3586 16.0496V21.78H20.8625V16.4949C20.8665 15.9441 20.7258 15.5144 20.4407 15.2058C20.1555 14.8933 19.7629 14.7371 19.2629 14.7371C18.927 14.7371 18.6301 14.8094 18.3723 14.9539C18.1184 15.0984 17.9192 15.3093 17.7747 15.5867C17.634 15.8601 17.5618 16.1902 17.5578 16.5769Z" fill="#F9F4F4"/>
</g>
<rect x="0.5" y="0.5" width="32" height="32" rx="16" stroke="#F9F4F4"/>
<defs>
<clipPath id="clip0_123_341">
<rect width="33" height="33" rx="16.5" fill="white"/>
</clipPath>
</defs>
</svg>
