<svg width="33" height="34" viewBox="0 0 33 34" fill="none" xmlns="http://www.w3.org/2000/svg">
<g clip-path="url(#clip0_448_790)">
<path d="M13.5302 9.92969C11.1641 9.92969 9.24023 11.8536 9.24023 14.2197V20.1597C9.24023 22.5258 11.1641 24.4497 13.5302 24.4497H19.4702C21.8363 24.4497 23.7602 22.5258 23.7602 20.1597V14.2197C23.7602 11.8536 21.8363 9.92969 19.4702 9.92969H13.5302ZM20.4602 12.5697C20.8232 12.5697 21.1202 12.8667 21.1202 13.2297C21.1202 13.5927 20.8232 13.8897 20.4602 13.8897C20.0972 13.8897 19.8002 13.5927 19.8002 13.2297C19.8002 12.8667 20.0972 12.5697 20.4602 12.5697ZM16.5002 13.5597C18.5033 13.5597 20.1302 15.1866 20.1302 17.1897C20.1302 19.1928 18.5033 20.8197 16.5002 20.8197C14.4971 20.8197 12.8702 19.1928 12.8702 17.1897C12.8702 15.1866 14.4971 13.5597 16.5002 13.5597ZM16.5002 14.2197C14.8634 14.2197 13.5302 15.5529 13.5302 17.1897C13.5302 18.8265 14.8634 20.1597 16.5002 20.1597C18.137 20.1597 19.4702 18.8265 19.4702 17.1897C19.4702 15.5529 18.137 14.2197 16.5002 14.2197Z" fill="black" fill-opacity="0.6"/>
</g>
<rect x="0.5" y="1.18945" width="32" height="32" rx="16" stroke="#E4E4E4"/>
<defs>
<clipPath id="clip0_448_790">
<rect y="0.689453" width="33" height="33" rx="16.5" fill="white"/>
</clipPath>
</defs>
</svg>
