<svg width="33" height="34" viewBox="0 0 33 34" fill="none" xmlns="http://www.w3.org/2000/svg">
<g clip-path="url(#clip0_448_789)">
<path d="M23.0876 13.1923C22.9295 12.6011 22.4634 12.135 21.8721 11.9768C20.7996 11.6895 16.5 11.6895 16.5 11.6895C16.5 11.6895 12.2004 11.6895 11.1279 11.9768C10.5366 12.135 10.0705 12.6011 9.91236 13.1923C9.625 14.2648 9.625 17.1895 9.625 17.1895C9.625 17.1895 9.625 20.1141 9.91236 21.1866C10.0705 21.7778 10.5366 22.244 11.1279 22.4021C12.2004 22.6895 16.5 22.6895 16.5 22.6895C16.5 22.6895 20.7996 22.6895 21.8721 22.4021C22.4641 22.244 22.9295 21.7778 23.0876 21.1866C23.375 20.1141 23.375 17.1895 23.375 17.1895C23.375 17.1895 23.375 14.2648 23.0876 13.1923ZM15.125 19.571V14.808L19.25 17.1895L15.125 19.571Z" fill="black" fill-opacity="0.6"/>
</g>
<rect x="0.5" y="1.18945" width="32" height="32" rx="16" stroke="#E4E4E4"/>
<defs>
<clipPath id="clip0_448_789">
<rect y="0.689453" width="33" height="33" rx="16.5" fill="white"/>
</clipPath>
</defs>
</svg>
