<svg width="33" height="34" viewBox="0 0 33 34" fill="none" xmlns="http://www.w3.org/2000/svg">
<g clip-path="url(#clip0_448_792)">
<path d="M10.5659 22.4693V13.4693H13.062V22.4693H10.5659ZM11.8198 12.3091C11.4487 12.3091 11.1304 12.1861 10.8647 11.9399C10.603 11.69 10.4722 11.3911 10.4722 11.0435C10.4722 10.6997 10.603 10.4048 10.8647 10.1587C11.1304 9.90869 11.4487 9.78369 11.8198 9.78369C12.1909 9.78369 12.5073 9.90869 12.769 10.1587C13.0347 10.4048 13.1675 10.6997 13.1675 11.0435C13.1675 11.3911 13.0347 11.69 12.769 11.9399C12.5073 12.1861 12.1909 12.3091 11.8198 12.3091ZM17.5576 17.2661V22.4693H15.0615V13.4693H17.4404V15.0572H17.5459C17.7451 14.5337 18.0791 14.1197 18.5478 13.815C19.0166 13.5064 19.585 13.3521 20.2529 13.3521C20.8779 13.3521 21.4229 13.4888 21.8877 13.7622C22.3525 14.0357 22.7138 14.4263 22.9717 14.9341C23.2295 15.438 23.3584 16.0396 23.3584 16.7388V22.4693H20.8623V17.1841C20.8662 16.6333 20.7256 16.2036 20.4404 15.895C20.1553 15.5825 19.7627 15.4263 19.2627 15.4263C18.9267 15.4263 18.6299 15.4986 18.3721 15.6431C18.1182 15.7876 17.9189 15.9985 17.7744 16.2759C17.6338 16.5493 17.5615 16.8794 17.5576 17.2661Z" fill="black" fill-opacity="0.6"/>
</g>
<rect x="0.5" y="1.18945" width="32" height="32" rx="16" stroke="#E4E4E4"/>
<defs>
<clipPath id="clip0_448_792">
<rect y="0.689453" width="33" height="33" rx="16.5" fill="white"/>
</clipPath>
</defs>
</svg>
